<?xml version="1.0" encoding="utf-8"?>
<!-- Uploaded to: SVG Repo, www.svgrepo.com, Generator: SVG Repo Mixer Tools -->
<svg fill="#000000" width="24px" height="24px" viewBox="-5.5 0 32 32" version="1.1" xmlns="http://www.w3.org/2000/svg">
<title>underline</title>
<path d="M0 5.656l0.063 1.156c0.125 0.031 0.313 0.063 0.563 0.063 0.5 0 1.094 0.031 1.531 0.156s0.563 0.375 0.625 0.844c0.063 0.5 0.063 1.125 0.063 1.656v4.938c0 1.656 0.094 3.125 0.594 4.344 0.531 1.219 1.469 2.219 3.188 2.844 1.219 0.438 2.563 0.625 3.875 0.625s2.813-0.219 4.156-0.688c1.313-0.469 2.5-1.313 3.25-2.531 0.313-0.563 0.531-1.375 0.656-2.219 0.094-0.813 0.125-1.563 0.125-2.25 0-0.219 0-0.969-0.063-1.844 0-0.438-0.031-0.906-0.031-1.406-0.063-1-0.094-1.875-0.125-2.469-0.031-0.25-0.063-0.438-0.063-0.5-0.063-0.25-0.063-0.469-0.063-0.719s0.094-0.438 0.25-0.531c0.344-0.219 0.906-0.281 1.438-0.313 0.25-0.031 0.531-0.063 0.719-0.125 0.063-0.125 0.063-0.25 0.063-0.375 0-0.219-0.031-0.469-0.094-0.688h-0.281c-0.344 0-0.688 0-1.031 0.063-0.344 0.031-0.719 0.063-1.063 0.063-0.781 0-1.5-0.031-2.25-0.094s-1.469-0.094-2.25-0.031v1.094c0.125 0.063 0.438 0.063 0.781 0.063h0.469c0.156-0.031 0.281-0.031 0.344-0.031 0.406 0 0.75 0.156 1.031 0.438 0.063 0.063 0.156 0.313 0.219 0.625 0.063 0.344 0.125 0.75 0.188 1.219 0.094 0.938 0.219 2.094 0.25 3.125 0.063 1.063 0.094 1.938 0.094 2.281 0 2.094-0.313 3.656-1.219 4.719-0.875 1.063-2.281 1.594-4.563 1.594-2.844 0-4.281-1.781-4.438-4.438-0.094-2.469-0.188-4.875-0.188-7.344 0-0.719 0.063-1.25 0.125-1.5 0.156-0.563 0.563-0.656 1.344-0.594 0.344 0.031 0.875 0 1.438-0.094v-0.094c0-0.156 0-0.375-0.031-0.531-0.031-0.188-0.031-0.344 0-0.5-1.75 0.063-3.625 0.125-5.406 0.125-0.594 0-1.25-0.031-1.844-0.063-0.594-0.063-1.281-0.094-1.906-0.094h-0.281c-0.063 0-0.156 0.031-0.25 0.031zM0 26.438h20.813v-2.125h-20.813v2.125z"></path>
</svg>